<?xml version="1.0" encoding="UTF-8" standalone="no"?>
<!-- Created with Inkscape (http://www.inkscape.org/) -->

<svg
   width="512"
   height="512"
   viewBox="0 0 135.46666 135.46667"
   version="1.1"
   id="svg5"
   inkscape:version="1.1 (c68e22c387, 2021-05-23)"
   sodipodi:docname="Logo-TTJ.svg"
   xmlns:inkscape="http://www.inkscape.org/namespaces/inkscape"
   xmlns:sodipodi="http://sodipodi.sourceforge.net/DTD/sodipodi-0.dtd"
   xmlns="http://www.w3.org/2000/svg"
   xmlns:svg="http://www.w3.org/2000/svg">
  <sodipodi:namedview
     id="namedview7"
     pagecolor="#ffffff"
     bordercolor="#666666"
     borderopacity="1.0"
     inkscape:pageshadow="2"
     inkscape:pageopacity="0.0"
     inkscape:pagecheckerboard="false"
     inkscape:document-units="mm"
     showgrid="false"
     showborder="true"
     units="px"
     inkscape:showpageshadow="false"
     inkscape:zoom="0.49887767"
     inkscape:cx="304.68391"
     inkscape:cy="405.91114"
     inkscape:window-width="1366"
     inkscape:window-height="745"
     inkscape:window-x="-8"
     inkscape:window-y="-8"
     inkscape:window-maximized="1"
     inkscape:current-layer="layer1" />
  <defs
     id="defs2" />
  <g
     inkscape:label="Logo"
     inkscape:groupmode="layer"
     id="layer1"
     style="display:inline"
     sodipodi:insensitive="true">
    <path
       style="display:inline;fill:#1c4d2b;fill-opacity:1;stroke-width:0.131717"
       d="m 65.337553,135.43857 c -0.326032,-0.0273 -1.51165,-0.11426 -2.634691,-0.19313 -12.990299,-0.91241 -26.002138,-5.89176 -36.292845,-13.88848 -2.983844,-2.31871 -6.847959,-5.92785 -9.447485,-8.8241 C 12.616932,107.69121 8.5263902,101.32062 5.7773907,95.113253 1.9648648,86.504339 -0.00978596,77.199589 2.3964644e-5,67.889648 0.01763676,51.114276 5.9459923,35.461218 17.059668,22.845324 26.742919,11.853207 40.025509,4.1899607 54.374701,1.3168115 61.653621,-0.14065791 69.425821,-0.39409789 76.798457,0.58559357 89.003348,2.2074047 100.88684,7.3511817 110.39074,15.126023 c 2.02531,1.656842 2.46222,2.055711 5.04869,4.609239 5.52353,5.453199 9.66254,11.19489 13.06489,18.123836 3.9244,7.992136 6.02174,15.6399 6.80819,24.825404 0.20905,2.441616 0.20464,7.937423 -0.008,10.40428 -1.25009,14.47874 -6.58449,27.349878 -15.93806,38.456328 -1.78142,2.11527 -5.67914,6.01144 -7.78975,7.78665 -10.99709,9.24957 -23.77202,14.58007 -38.005404,15.85823 -2.117478,0.19014 -7.126968,0.34141 -8.2334,0.24858 z m -7.707689,-9.27561 -5.401938,-5.40052 -10.142529,0.0338 -10.142535,0.0338 1.58081,0.99966 c 6.771835,4.28229 13.966115,7.16194 21.802069,8.7267 2.282353,0.45575 5.842422,0.94672 7.179325,0.99008 l 0.526736,0.0171 z m 16.769627,5.26524 c 4.812472,-0.50889 9.51554,-1.55083 14.151219,-3.13514 4.611542,-1.57608 9.761617,-4.07438 13.73836,-6.66451 l 1.31735,-0.85801 -10.21003,-0.003 -10.210017,-0.003 -5.39991,5.39969 c -4.702586,4.70239 -5.352529,5.39969 -5.033052,5.39969 0.201769,0 0.94251,-0.0608 1.64608,-0.13527 z m -8.863723,-4.48595 c -1.036196,-9.9078 -4.552396,-19.89644 -9.801185,-27.842763 l -0.869918,-1.316996 -0.03369,10.139459 -0.03379,10.13947 5.429084,5.42885 c 2.985994,2.98585 5.44685,5.41107 5.468549,5.38937 0.02171,-0.0217 -0.04987,-0.89353 -0.159007,-1.93739 z m 15.082997,-18.9604 c 0,-6.12652 -0.04782,-10.136327 -0.119951,-10.061075 -0.06595,0.06881 -0.711137,1.086404 -1.433703,2.261315 -4.148264,6.74504 -7.054806,14.34126 -8.454809,22.09655 -0.297984,1.65067 -0.646922,4.262 -0.730337,5.46555 l -0.08673,1.25114 5.412751,-5.41365 5.412772,-5.41364 z m -12.387634,8.1069 c 1.462497,-5.51284 3.679231,-10.84969 6.75588,-16.264915 0.741427,-1.304991 3.305052,-5.220099 4.191959,-6.401865 l 0.40618,-0.541222 -0.143463,-2.948822 c -0.07885,-1.621846 -0.233809,-4.786028 -0.344238,-7.031507 -0.323164,-6.571537 -0.431954,-8.954313 -0.409702,-8.97466 0.01147,-0.01045 2.718126,-1.633321 6.014781,-3.606282 3.296645,-1.972961 6.156943,-3.701914 6.356183,-3.842109 l 0.36226,-0.254905 v -4.13654 -4.13654 l -0.313282,-0.205219 c -0.266128,-0.174326 -0.791634,-0.199558 -3.491072,-0.16766 -1.747773,0.02069 -3.177718,0.0051 -3.177667,-0.03563 6.2e-5,-0.04024 0.214979,-0.603269 0.477604,-1.251144 1.413489,-3.487017 2.005719,-5.844019 2.29802,-9.145804 0.436203,-4.927385 -0.805284,-10.508308 -3.396454,-15.268075 -1.532826,-2.815682 -3.561544,-5.488179 -6.293238,-8.290293 -2.597918,-2.664878 -5.133567,-4.793784 -8.432895,-7.08014 -2.733691,-1.89439 -3.705999,-2.458839 -4.075725,-2.366065 -0.40533,0.101683 -0.518983,0.457247 -0.349665,1.093837 0.594278,2.234173 0.0896,5.3632 -1.353554,8.391751 -1.382564,2.901473 -3.046,5.189519 -6.093731,8.38189 -2.63466,2.75968 -3.85452,4.415181 -4.991611,6.774159 -2.241331,4.649789 -2.563543,10.368665 -0.983685,17.459414 0.14378,0.645325 0.261417,1.200855 0.261417,1.234514 0,0.03369 -1.605417,0.07875 -3.567616,0.100147 -3.354986,0.03666 -3.578751,0.05417 -3.754428,0.294615 -0.151224,0.20694 -0.186481,0.984894 -0.185027,4.082698 10e-4,2.104873 0.03594,3.954493 0.07782,4.110254 0.05478,0.204237 1.83595,1.338819 6.387327,4.068669 l 6.311321,3.785462 -0.002,0.672522 c -5.42e-4,0.369889 -0.0597,1.798554 -0.131072,3.17482 -0.181657,3.502099 -0.513607,10.3494 -0.596951,12.313924 -0.0384,0.905435 -0.09513,1.888855 -0.126003,2.185377 -0.05192,0.498789 0.01823,0.641701 0.937052,1.909648 3.077427,4.246421 6.202214,9.972296 8.042977,14.738046 1.012173,2.6205 2.328289,6.72829 2.616136,8.16538 0.09472,0.47323 0.190156,0.70788 0.257812,0.63433 0.02109,-0.0229 0.227031,-0.75286 0.457626,-1.62209 z m -24.450983,-3.7718 -4.760811,-4.75955 -10.474629,-0.0663 c -5.761054,-0.0366 -10.574181,-0.0283 -10.695833,0.0184 -0.276408,0.10603 -0.07506,0.36986 2.293064,3.00506 1.960478,2.18156 3.316469,3.52714 5.339658,5.29867 l 1.442816,1.26334 h 10.808268 10.808272 z m 66.195372,3.52312 c 2.64537,-2.33092 7.79236,-7.79308 7.79236,-8.26953 0,-0.10665 -2.89705,-0.12817 -10.68475,-0.0794 l -10.684761,0.067 -4.662313,4.6597 c -2.56428,2.56284 -4.662302,4.70446 -4.662302,4.75916 0,0.0547 4.83715,0.0994 10.749244,0.0994 H 108.57227 Z M 51.11023,103.53152 V 92.752245 l -0.877199,-1.040772 c -1.849364,-2.194218 -8.047773,-8.086706 -8.506535,-8.086706 -0.0556,0 -0.101069,4.785336 -0.101069,10.634078 v 10.634075 l 4.708823,4.70895 c 2.589853,2.58992 4.723951,4.70894 4.742444,4.70894 0.01843,0 0.03359,-4.85068 0.03359,-10.77929 z m 38.026607,6.13687 4.650404,-4.64242 0.002,-10.707143 c 0.002,-9.364696 -0.02171,-10.693616 -0.190475,-10.599196 -1.044551,0.584409 -6.053355,5.362957 -8.139243,7.765082 l -1.152676,1.327429 v 10.749338 c 0,5.91213 0.04035,10.74933 0.0895,10.74933 0.04925,0 2.182226,-2.08909 4.739942,-4.64242 z m -59.829208,-11.833837 -5.927505,-5.940275 -7.373322,0.08678 c -4.055306,0.04774 -7.4002633,0.113754 -7.4332361,0.14671 -0.070144,0.07009 0.8086937,2.06177 1.7396321,3.942616 0.929342,1.877612 2.292941,4.286696 3.465216,6.122036 l 1.010719,1.58241 h 10.222991 10.223001 z m 92.330391,4.458657 c 0.52986,-0.8149 1.30576,-2.07428 1.72422,-2.798624 0.82882,-1.434682 2.92656,-5.653872 3.34533,-6.728481 l 0.26121,-0.670288 -4.55611,-0.08698 c -2.50586,-0.04784 -5.86566,-0.08699 -7.46622,-0.08699 h -2.91011 l -5.92696,5.926491 -5.92695,5.926492 h 10.2461 10.24611 z M 37.882277,80.776212 c -0.07793,-0.204151 -2.843801,-1.942862 -5.04193,-3.16947 -1.643407,-0.917074 -5.729495,-2.892626 -6.463272,-3.12489 l -0.296397,-0.0938 v 7.482294 7.482292 l 5.895116,5.894672 5.895117,5.89466 0.034,-10.10851 c 0.01874,-5.559685 0.0082,-10.175441 -0.02273,-10.25723 z m 65.612313,14.536908 5.83906,-5.827716 0.002,-7.5539 c 0.002,-5.991158 -0.0325,-7.540194 -0.16303,-7.487652 -2.85774,1.149634 -6.88953,3.265566 -10.143564,5.323478 l -1.547878,0.978898 v 10.197304 c 0,5.608515 0.03932,10.197298 0.08735,10.197298 0.04803,0 2.714952,-2.622468 5.926442,-5.82771 z M 52.481622,87.279435 c 0.08991,-1.392608 0.330384,-6.311107 0.454656,-9.29836 l 0.08407,-2.02196 -5.401119,-3.227678 c -2.970607,-1.775227 -5.644527,-3.462164 -5.94205,-3.748761 -0.693873,-0.668386 -1.088717,-1.467229 -1.255916,-2.540923 -0.07762,-0.498811 -0.111984,-2.571356 -0.08233,-4.973158 0.06031,-4.884521 0.07936,-4.973343 1.34189,-6.235484 1.032878,-1.032602 1.60298,-1.235948 3.745536,-1.336003 l 1.627427,-0.07598 -0.08663,-0.539976 c -0.756115,-4.711096 -0.504959,-9.175797 0.737403,-13.109124 0.538184,-1.703906 1.861274,-4.39636 2.98324,-6.070835 1.062922,-1.58634 2.164009,-2.910444 4.048414,-4.868413 3.863409,-4.014213 5.875302,-7.43938 6.397768,-10.891991 0.142796,-0.943565 0.133693,-1.238661 -0.07189,-2.330798 -0.370545,-1.968066 -0.0072,-3.317586 1.192427,-4.422604 0.783207,-0.721746 1.622057,-1.080863 2.705787,-1.15839 1.147904,-0.08212 1.742735,0.127252 3.515115,1.237166 11.805583,7.393065 19.377673,16.655287 21.682564,26.522203 0.590848,2.52931 0.766956,4.105799 0.772414,6.914232 0.0061,2.889645 -0.184904,4.578959 -0.813005,7.208847 l -0.362834,1.519196 1.063772,0.0898 c 1.833503,0.154798 3.152015,0.982037 3.859077,2.421218 l 0.366315,0.745605 v 5.004584 5.004595 l -0.326195,0.658494 c -0.179405,0.362178 -0.565186,0.895559 -0.857303,1.1853 -0.308336,0.305838 -2.74093,1.846129 -5.799454,3.672166 -2.897603,1.729956 -5.345515,3.216742 -5.439816,3.303987 -0.140677,0.130151 -0.121968,1.220495 0.104213,6.073618 0.151603,3.253248 0.302746,6.043411 0.335872,6.200366 0.051,0.241857 0.457001,-0.110541 2.662236,-2.311034 2.738125,-2.732249 4.764917,-4.493204 7.604654,-6.60723 10.22871,-7.61471 22.26754,-12.137011 35.03081,-13.159086 0.93431,-0.07485 2.07545,-0.136028 2.53589,-0.136028 h 0.83715 v -1.035151 c 0,-1.772657 -0.46141,-5.911634 -0.97839,-8.776478 -0.50523,-2.79979 -1.28703,-5.830472 -2.23268,-8.655186 C 120.84603,24.585755 100.88292,7.8461525 77.047821,4.3487831 71.150493,3.483452 63.931601,3.4822539 58.371199,4.3457111 45.798616,6.298008 34.682339,11.502159 25.290314,19.832737 13.212716,30.545373 5.5423212,45.5008 4.0215892,61.301672 c -0.3506791,3.643669 -0.386857,4.534078 -0.1865831,4.593111 0.099123,0.02918 1.2989644,0.120238 2.666332,0.202281 4.1605629,0.249621 9.0768069,1.070787 13.1902659,2.203187 9.715906,2.674698 18.684477,7.47137 26.409716,14.124736 1.763926,1.519169 6.062842,5.745415 6.062842,5.960341 0,0.06179 0.05376,0.112342 0.119439,0.112342 0.06564,0 0.154819,-0.5482 0.198073,-1.218224 z M 19.74645,88.308963 C 18.643387,87.163638 3.9010848,72.436801 3.8817825,72.460958 c -0.043827,0.05489 0.2919116,3.345878 0.4536319,4.447119 0.5084877,3.462396 1.8053324,8.923992 2.6403634,11.1197 l 0.1286144,0.338179 h 6.3484718 c 3.491645,0 6.323763,-0.02566 6.293586,-0.057 z m 108.86522,-0.568581 c 1.32998,-4.30836 1.93508,-6.89456 2.51907,-10.766452 0.22613,-1.499197 0.46926,-3.696896 0.46926,-4.241715 0,-0.317757 -1.05966,0.692306 -7.90407,7.534206 -4.34724,4.34564 -7.90407,7.945797 -7.90407,8.000349 0,0.05455 2.841,0.09918 6.31334,0.09918 h 6.31335 z M 22.392107,79.294652 V 72.989045 L 22.029847,72.84677 C 21.389826,72.595429 18.154232,71.667972 16.727534,71.326898 13.898058,70.650475 10.178686,70.048107 7.637845,69.854775 l -1.119744,-0.0852 7.903662,7.915345 c 4.347002,4.353433 7.918673,7.915337 7.937003,7.915337 0.01833,0 0.03338,-2.837525 0.03338,-6.305609 z m 96.263003,0.807144 c 2.99394,-3.024155 6.52371,-6.5862 7.84393,-7.91566 l 2.4004,-2.417182 -1.11974,0.08407 c -1.81425,0.136162 -4.59526,0.548741 -7.17953,1.065114 -2.3406,0.467681 -7.03932,1.782589 -7.41007,2.073651 -0.12759,0.100147 -0.16466,1.533952 -0.16466,6.36889 0,3.431787 0.0419,6.239613 0.0931,6.239613 0.0512,0 2.54265,-2.474307 5.5366,-5.498465 z"
       id="path1112" />
  </g>
</svg>
